/* XPM */
static char *_be927d59a89464bdd6e564a6a8bb4bfYVu1Z1jZAlTfPHso[] = {
/* columns rows colors chars-per-pixel */
"32 32 7 1 ",
"  c None",
". c #130806",
"X c #442B1D",
"o c #704A2D",
"O c #614C4C",
"+ c #A57B5F",
"@ c #E3C396",
/* pixels */
"                                ",
"              ......            ",
"           ...@@@@@@..          ",
"          .@+@@@@@@@@@...       ",
"        ..@+@++@@@@@@@@@@.      ",
"       ..@@@@@@@@@@@@@@@@@.     ",
"      ..+@@@@@@@+@@@@@@+@@@..   ",
"      .@++@+@@@@@+@@@@@@@@@@.   ",
"      .+@++@@@@@@++@@@@@@@@@@.  ",
"      .+++@++++@@.+@@@@@@+@@@.  ",
"      ...++....+@.++@@@@@@@@@.  ",
"      ...++X....@.+++@@@+@@@@.  ",
"    .....++X....@.+++@@++@@@@.  ",
"    .++.X++XX.X.@...++@+@@@@@.  ",
"    .+XXXX+XXX.@@@...+@+@@@+@.  ",
"    .+++XX+oo+@@@@.O.++++++@..  ",
"    ..+@XX+++@@@@@@..O++O++..   ",
"     .+@@@@@@@@@@@@@@..+++..    ",
"     ..++++++++@@@@@@+++...     ",
"      .@++++++++oooO....o.      ",
"     ..@@@@++++o+OO..  ..       ",
"     .@@@@@@++o+..O..           ",
"     .@@@@@@++o+.....           ",
"    .++@+@@@+++....+.           ",
"   .++o@o@@o..   .+.            ",
"   ..+.@.@@...  ..+.            ",
"    ........oo...++.            ",
"     .o+oo+@@@+++o++.           ",
"      .++@@@@+ooo+++.           ",
"      .+++++++++++..            ",
"      ............              ",
"                                "
};
