/* XPM */
static char *_15481ea7d024042db39533aa4ebf69asqNL8xDO6K7fu4cV[] = {
/* columns rows colors chars-per-pixel */
"32 32 7 1 ",
"  c None",
". c #130806",
"X c #324949",
"o c #597877",
"O c #96BA61",
"+ c #E7E7A6",
"@ c #FFFFEA",
/* pixels */
"           .........            ",
"          .O+@@@@@+O..          ",
"         .O@@.@@@.@@@O.         ",
"        .O@@+O@@@.+@@@+.        ",
"        .+@@.@@@@@.O@@@.        ",
"       .+@@.O@@@@@@.@@@O.       ",
"   ... .+@@.@@@@@@@@.@@+.       ",
" ..++O..@@.O@@@@@@@@@.@@.       ",
" .+@@+o.@.+@@@OO@@@@@O.@+.....  ",
".+@@@+oO++@@@@..X@@@@@+++.O+@O. ",
".+@@@+.+@@@@@+..X@@@@@@@+.+@@@O ",
".+@@@+.+@@@@@+...@@@@@@@+.+@@@+.",
".+@@@+O+@@@@@+...@@@@@@@+O+@@@+.",
".+@@@@O+@@@@@@...@@@@@@@@O+@@@+.",
".+@@@@O@@@@@@@...@@@@@@@@+O@@@+.",
".O+@@+O@@@@@@@...@@@@@@@@+O@@+. ",
" .O++++@@@@@@@...@@@@@@@@+O@@+. ",
" .O++++@@@@+@@...@@@@@@@@+O+++. ",
"  .++++@@@@+@@...@@@@@@@@@O++.  ",
"  .++++@@@@+@@...@@@+@@@@@O++.  ",
"  .++O+@@@@@@@..X@@@@@@@@@+++.  ",
"   .+O+@@@+@@@OO@@@@@@@@@@+++.  ",
"   .+O@@@@++@@@@@@@@+@@@@@++.   ",
"   .+O@@@@++@@@@@@@@+@@@@@++.   ",
"   .OO@@@@++@@@@@@@@++@@@@++.   ",
"   .oo@@@@++@@@@@@@@++@@@@.+.   ",
"   ..o@@@@++@@@@@@@@OO@@@@.o.   ",
"    ..+@@@OO@@@@@@@@OO@@@@..    ",
"      .+@@oO@@@@@@@@OO@@@+.     ",
"       ....o@@@@@@Oo..+@+o.     ",
"           .oO+++O..  ...       ",
"            ......              "
};
