/* XPM */
static char *aa6d1a9c399a4257c05195de0c85e974SjyjGHWuVGIeDvxb[] = {
/* columns rows colors chars-per-pixel */
"32 32 241 2 ",
"   c black",
".  c #131115",
"X  c #120F14",
"o  c #141315",
"O  c gray9",
"+  c #161516",
"@  c #161415",
"#  c #131115",
"$  c #131115",
"%  c #08000F",
"&  c #0E0812",
"*  c #252A1C",
"=  c #313B21",
"-  c #0D0812",
";  c #110D13",
":  c #303920",
">  c #607B33",
",  c #120E13",
"<  c #141315",
"1  c #1B211B",
"2  c #212B20",
"3  c #130F14",
"4  c #151315",
"5  c #232E20",
"6  c #3B5932",
"7  c #110D13",
"8  c #141114",
"9  c #100C13",
"0  c #131014",
"q  c #140D12",
"w  c #151114",
"e  c #171C1A",
"r  c #1A251E",
"t  c #141013",
"y  c #1B271E",
"u  c #26472D",
"i  c #161415",
"p  c #161516",
"a  c #161918",
"s  c #171C1B",
"d  c #161415",
"f  c #161516",
"g  c #181D1B",
"h  c #1B2B24",
"j  c #161315",
"k  c #161516",
"l  c #151214",
"z  c #161415",
"x  c #151114",
"c  c #161415",
"v  c #161415",
"b  c #161516",
"n  c #181E1B",
"m  c None",
"M  c #161516",
"N  c #161616",
"B  c #171918",
"V  c #181E1B",
"C  c gray9",
"Z  c gray9",
"A  c gray9",
"S  c gray9",
"D  c #161516",
"F  c #161515",
"G  c #1C2E25",
"H  c gray9",
"J  c gray9",
"K  c gray9",
"L  c gray9",
"P  c #161616",
"I  c #161516",
"U  c #171918",
"Y  c #181E1B",
"T  c gray9",
"R  c gray9",
"E  c gray9",
"W  c gray9",
"Q  c #161617",
"!  c #161617",
"~  c #181716",
"^  c #1B1816",
"/  c gray9",
"(  c gray9",
")  c gray9",
"_  c #161617",
"`  c #151617",
"'  c #1E1A16",
"]  c #251E15",
"[  c gray9",
"{  c #161617",
"}  c #151617",
"|  c #1E1B16",
" . c #282015",
".. c #332614",
"X. c #402E12",
"o. c #161617",
"O. c #191816",
"+. c #1E1B16",
"@. c #282014",
"#. c #312513",
"$. c gray9",
"%. c #171716",
"&. c #141517",
"*. c #1C1915",
"=. c #251E14",
"-. c #3B2F1A",
";. c #5F4D26",
":. c #735E2C",
">. c gray9",
",. c #181716",
"<. c #1D1A16",
"1. c #292318",
"2. c #3B321E",
"3. c #453A22",
"4. c gray9",
"5. c gray9",
"6. c #141516",
"7. c #121315",
"8. c #101215",
"9. c gray9",
"0. c gray9",
"q. c #151516",
"w. c #131416",
"e. c #131115",
"r. c #343F22",
"t. c #76993B",
"y. c #40552B",
"u. c #7AA03E",
"i. c #9ACA49",
"p. c #5B843E",
"a. c #83AF44",
"s. c #98C748",
"d. c #273321",
"f. c #4E743B",
"g. c #6EA248",
"h. c #83B447",
"j. c #8DBC46",
"k. c #2B3621",
"l. c #5A7F3B",
"z. c #76AA48",
"x. c #7CAE47",
"c. c #7EAF46",
"v. c #314729",
"b. c #5B843D",
"n. c #73A647",
"m. c #76A947",
"M. c #77A947",
"N. c #386538",
"B. c #538442",
"V. c #679A46",
"C. c #72A447",
"Z. c #78AA47",
"A. c #213324",
"S. c #345F37",
"D. c #447C42",
"F. c #518645",
"G. c #5E9146",
"H. c #6A9C46",
"J. c #70A246",
"K. c #2A482F",
"L. c #44723D",
"P. c #548945",
"I. c #578B46",
"U. c #5A8D46",
"Y. c #609346",
"T. c #19221D",
"R. c #213C2B",
"E. c #305937",
"W. c #467740",
"Q. c #548844",
"!. c #588B45",
"~. c #598C46",
"^. c #588B46",
"/. c #1C281F",
"(. c #294D31",
"). c #33663B",
"_. c #396F3E",
"`. c #447A41",
"'. c #538644",
"]. c #1E2B20",
"[. c #2D5733",
"{. c #346D3E",
"}. c #336B3D",
"|. c #3A703E",
" X c #497D42",
".X c #508443",
"XX c #346E3E",
"oX c #336C3D",
"OX c #356C3D",
"+X c #3D733F",
"@X c #3C723F",
"#X c #294D30",
"$X c #31643B",
"%X c #336A3C",
"&X c #346B3D",
"*X c #1A221D",
"=X c #295335",
"-X c #346C3D",
";X c #191F1C",
":X c #1D3328",
">X c #244732",
",X c #2C5837",
"<X c #2F6139",
"1X c #2F6039",
"2X c #19201C",
"3X c #1E3429",
"4X c #224230",
"5X c #254932",
"6X c #1F372A",
"7X c #203C2D",
"8X c #203E2F",
"9X c #1F3E2F",
"0X c #1B2721",
"qX c #213F2F",
"wX c #203F2F",
"eX c #1F3629",
"rX c #223729",
"tX c #253928",
"yX c #293B28",
"uX c #2C3C27",
"iX c #1C221C",
"pX c #25271B",
"aX c #302D1A",
"sX c #3D3519",
"dX c #443818",
"fX c #221C15",
"gX c #2F2414",
"hX c #3E2D13",
"jX c #4D3713",
"kX c #553D13",
"lX c #3F2D12",
"zX c #4E3813",
"xX c #594316",
"cX c #5F4918",
"vX c #503B15",
"bX c #624D1C",
"nX c #6C5620",
"mX c #463619",
"MX c #675224",
"NX c #79622A",
"BX c #DDDDBB",
/* pixels */
"                      . . # $ e.e.$ # . .                       ",
"                  X X % & * = r.r.= * & % X X                   ",
"                  o o - ; : > t.t.> : ; - o o                   ",
"              O O , < 1 2 y.u.i.i.u.y.2 1 < , O O               ",
"              O O 3 4 5 6 p.a.s.s.a.p.6 5 4 3 O O               ",
"              + + 7 8 d.f.g.h.j.j.h.g.f.d.8 7 + +               ",
"              + + 9 0 k.l.z.x.c.c.x.z.l.k.0 9 + +               ",
"          @ @ q w e r v.b.n.m.M.M.m.n.b.v.r e w q @ @           ",
"          + + t 4 y u N.B.V.C.Z.Z.C.V.B.N.u y 4 t + +           ",
"      O O i p a s A.S.D.F.G.H.J.J.H.G.F.D.S.A.s a p i O O       ",
"      O O d f g h K.L.P.I.U.G.Y.Y.G.U.I.P.L.K.h g f d O O       ",
"      O O j k T.R.E.W.Q.!.~.~.^.^.~.~.!.Q.W.E.R.T.k j O O       ",
"      O O l z /.(.)._.`.'.U.~.~.~.~.U.'.`._.).(./.z l O O       ",
"      O O x z ].[.{.}.|. X.X.X.X.X.X.X X|.}.{.[.].z x O O       ",
"      O O x z ].[.XXoXOX|.+X+X@X@X+X+X|.OXoXXX[.].z x O O       ",
"      O O l z /.#X$X%X&X}.%X%X%X%X%X%X}.&X%X$X#X/.z l O O       ",
"      O O j k *XR.=X$X-X-X}.}.}.}.}.}.-X-X$X=XR.*Xk j O O       ",
"      O O c k ;X:X>X,X<X1X1X1X1X1X1X1X1X<X,X>X:X;Xk c O O       ",
"      O O c k 2X3X4X>X5X5X5X5X5X5X5X5X5X5X>X4X3X2Xk c O O       ",
"      O O v b n m 6X7X8X8X8X9X9X9X9X8X8X8X7X6Xm n b v O O       ",
"      O O M N B V 0X6XqXwX8X9X9X9X9X8XwXqX6X0XV B N M O O       ",
"  O O C Z A S D F V G eXrXtXyXuXuXyXtXrXeXG V F D S A Z C O O   ",
"  O O H J K L P I U Y iXpXaXsXdXdXsXaXpXiXY U I P L K J H O O   ",
"  O O T R E W Q ! ~ ^ fXgXhXjXkXkXjXhXgXfX^ ~ ! Q W E R T O O   ",
"  O O / S ( ) _ ` ' ] gXlXzXxXcXcXxXzXlXgX] ' ` _ ) ( S / O O   ",
"  O O / [ W ) { } |  ...X.vXbXnXnXbXvXX... .| } { ) W [ / O O   ",
"  O O / [ W ) o.o.O.+.@.#.mXMXNXNXMXmX#.@.+.O.o.o.) W [ / O O   ",
"  O O / S ( ) $.%._ &.*.=.-.;.:.:.;.-.=.*.&._ %.$.) ( S / O O   ",
"  O O T R E W >.$.{ _ ,.<.1.2.3.3.2.1.<.,._ { $.>.W E R T O O   ",
"  O O H 4.K 5.$.$.$.%.o._ 6.7.8.8.7.6._ o.%.$.$.$.5.K 4.H O O   ",
"  O O C Z 9.0.) ) $.$.o.{ q.w.w.w.w.q.{ o.$.$.) ) 0.9.Z C O O   ",
"      O O / [ W ) >.>.>.>.>.>.>.>.>.>.>.>.>.>.) W [ / O O       "
};
